<?xml version="1.0" encoding="utf-8"?>
<!-- Generator: Adobe Illustrator 22.0.0, SVG Export Plug-In . SVG Version: 6.00 Build 0)  -->
<!DOCTYPE svg PUBLIC "-//W3C//DTD SVG 1.1//EN" "http://www.w3.org/Graphics/SVG/1.1/DTD/svg11.dtd">
<svg version="1.1" id="Layer_1" xmlns="http://www.w3.org/2000/svg" xmlns:xlink="http://www.w3.org/1999/xlink" x="0px" y="0px"
	 viewBox="0 0 1920 378" style="enable-background:new 0 0 1920 378;" xml:space="preserve">
<style type="text/css">
	.st0{stroke:#000000;stroke-width:8.9741;}
	.st1{fill:none;}
</style>
<g>
	<g>
		<path class="st0" d="M499.5,204.4H608v25.8H499.5V204.4z"/>
		<path class="st0" d="M670,229.3h35.7v16.5c0,22.9,14.7,33.9,62,33.9h117.9c55.1,0,71.3-9.7,71.3-43.3c0-29.4-14-36.8-61.3-36.8
			h-72.1c-115.9,0-153.9-5.8-153.9-67.8c0-53.3,38-65.2,116.3-65.2h81.8c94.2,0,117.9,20,117.9,61.7v8.1h-35.7
			c-0.8-37.2-5.4-43.9-105.1-43.9h-40.3c-73.3,0-99.3,3.2-99.3,41.7c0,27.8,10.5,37.2,69.8,37.2h112.4c74,0,105.1,17.8,105.1,57.5
			v15.2c0,57.5-56.6,61.7-112.8,61.7H774.3c-55.4,0-104.3-8.1-104.3-59.1V229.3z"/>
		<path class="st0" d="M1190.3,204.1l-160.9-135h51.2l128.7,108.5L1338,69.1h51.2l-160.9,135v98.8h-38V204.1z"/>
		<path class="st0" d="M1426.4,229.3h35.7v16.5c0,22.9,14.7,33.9,62,33.9h117.9c55.1,0,71.3-9.7,71.3-43.3c0-29.4-14-36.8-61.3-36.8
			h-72.1c-115.9,0-153.9-5.8-153.9-67.8c0-53.3,38-65.2,116.3-65.2h81.8c94.2,0,117.9,20,117.9,61.7v8.1h-35.7
			c-0.8-37.2-5.4-43.9-105.1-43.9h-40.3c-73.3,0-99.3,3.2-99.3,41.7c0,27.8,10.5,37.2,69.8,37.2h112.4c74,0,105.1,17.8,105.1,57.5
			v15.2c0,57.5-56.6,61.7-112.8,61.7h-105.5c-55.4,0-104.3-8.1-104.3-59.1V229.3z"/>
	</g>
	<g>
		<path class="st1" d="M288.2,213.3v66.4h44.9v-73.3H360v71.1c23.4-4.5,39.8-17.3,39.8-47.6v-87.9c0-40.7-29.5-49.7-65.9-49.7H180
			c-36.4,0-65.9,9-65.9,49.7v87.9c0,40.7,29.5,49.7,65.9,49.7h81.3v-66.4H288.2z"/>
		<rect x="288.2" y="252.3" width="44.9" height="85.9"/>
		<path class="st0" d="M337.8,66.5H176.1c-76,0-100,28.4-100,87.5v64c0,59.1,24,87.5,100,87.5h85.2v-25.8H180
			c-36.4,0-65.9-9-65.9-49.7v-87.9c0-40.7,29.5-49.7,65.9-49.7h153.9c36.4,0,65.9,9,65.9,49.7v87.9c0,30.3-16.4,43.1-39.8,47.6v27
			c58.4-5.4,77.8-33.6,77.8-86.5v-64C437.8,94.9,413.8,66.5,337.8,66.5z"/>
	</g>
	<g>
		<g>
			<path d="M1792.2,128.7h-6.7V95.9H1773v-5.7h31.4v5.7h-12.2V128.7z M1845,128.7h-6.6l0.2-23.8l0.4-7.9l-2,6.6l-7.8,25.1h-6
				l-7.8-25.2l-2-6.4l0.5,7.8l0.2,23.8h-6.5V90.2h9.2l9.6,30.4l9.4-30.4h9.2V128.7z"/>
		</g>
	</g>
</g>
</svg>
